<?xml version="1.0" standalone="no"?>
<!DOCTYPE svg PUBLIC "-//W3C//DTD SVG 1.1//EN" "http://www.w3.org/Graphics/SVG/1.1/DTD/svg11.dtd" >
<svg xmlns="http://www.w3.org/2000/svg">
<metadata>Generated by IcoMoon</metadata>
<defs>
<font id="icomoon" horiz-adv-x="1024">
<font-face units-per-em="1024" ascent="960" descent="-64" />
<missing-glyph horiz-adv-x="1024" />
<glyph unicode="&#x20;" horiz-adv-x="512" d="" />
<glyph unicode="&#xe901;" glyph-name="activity" d="M290.394-33.882c-4.065-0.224-8.822-0.352-13.608-0.352-68.711 0-131.28 26.296-178.192 69.374l0.192-0.174c-42.794 46.727-69.016 109.247-69.016 177.892 0 4.761 0.126 9.493 0.375 14.192l-0.028-0.656v356.533c-0.224 4.075-0.351 8.845-0.351 13.644 0 68.803 26.217 131.482 69.206 178.594l-0.187-0.208c46.67 43.081 109.284 69.499 178.067 69.499 4.763 0 9.497-0.127 14.198-0.377l-0.657 0.028h387.855c-1.811-10.845-2.861-23.359-2.891-36.112v-0.029c0 0 0 0 0 0 0-108.136 87.542-195.826 195.621-196.065h0.023c12.72 0.17 25.037 1.368 37.024 3.516l-1.364-0.203v-388.819c0.224-4.063 0.351-8.818 0.351-13.602 0-68.624-26.224-131.123-69.197-178.022l0.178 0.197c-46.704-42.903-109.257-69.2-177.953-69.2-4.782 0-9.535 0.127-14.254 0.379l0.658-0.028zM376.591 498.116c-9.885-1.601-18.318-6.856-24.028-14.306l-0.066-0.090-142.577-185.585-2.952-4.337c-2.659-4.91-4.222-10.748-4.222-16.952 0-11.733 5.591-22.16 14.254-28.762l0.088-0.065c6.187-4.377 13.848-7.057 22.125-7.228l0.042-0.001h1.265c11.19 0.301 21.013 5.893 27.096 14.354l0.070 0.103 120.952 155.648 137.336-103.183 4.337-2.831c4.91-2.659 10.748-4.222 16.952-4.222 11.733 0 22.16 5.591 28.762 14.254l0.065 0.088 139.264 179.682-1.928-0.964c4.353 5.897 6.968 13.31 6.968 21.333 0 5.364-1.169 10.456-3.265 15.034l0.092-0.225c-5.188 11.673-16.17 19.923-29.194 21.132l-0.14 0.011c-1.325 0-2.711 0-4.036 0-12.173-0.025-22.963-5.927-29.685-15.018l-0.071-0.101-116.495-150.528-133.542 104.809c-6.33 4.958-14.406 7.951-23.181 7.951-0.003 0-0.007 0-0.010 0h0.001c-1.385 0.181-2.831 0.12-4.277 0zM761.615 813.749c0 64.139 51.995 116.134 116.134 116.134s116.134-51.995 116.134-116.134c0-64.139-51.995-116.134-116.134-116.134v0c-64.125 0.034-116.099 52.009-116.134 116.13v0.003z" />
<glyph unicode="&#xe902;" glyph-name="attachment" d="M347.705-85.22c-0.055 0-0.12 0-0.186 0-176.26 0-319.147 142.887-319.147 319.147 0 88.162 35.748 167.975 93.539 225.734l434.519 434.519c40.656 40.656 96.823 65.803 158.862 65.803 124.079 0 224.665-100.586 224.665-224.665 0-62.040-25.146-118.206-65.803-158.862v0l-434.972-434.574c-23.537-23.53-56.049-38.083-91.961-38.083-71.837 0-130.072 58.235-130.072 130.072 0 35.926 14.565 68.449 38.111 91.989l401.408 401.010c6.327 5.926 14.859 9.565 24.241 9.565 19.605 0 35.499-15.893 35.499-35.499 0-9.41-3.661-17.965-9.637-24.318l0.017 0.018-401.408-400.953c-10.213-10.616-16.504-25.070-16.504-40.994 0-32.676 26.489-59.164 59.164-59.164 15.937 0 30.403 6.302 41.041 16.549l434.954 434.556c27.858 27.806 45.092 66.248 45.092 108.715s-17.234 80.908-45.089 108.712l-0.002 0.002c-28.216 26.945-66.529 43.528-108.715 43.528s-80.499-16.583-108.775-43.586l0.061 0.058-434.574-434.517c-44.939-44.946-72.734-107.035-72.734-175.616 0-137.176 111.203-248.379 248.379-248.379 68.595 0 130.695 27.806 175.644 72.762l434.518 434.461c6.384 6.247 15.132 10.102 24.779 10.102 19.574 0 35.442-15.868 35.442-35.442 0-9.648-3.855-18.395-10.108-24.786l-434.511-434.511c-57.656-57.679-137.319-93.355-225.314-93.355-0.148 0-0.296 0-0.444 0h0.023z" />
<glyph unicode="&#xe903;" glyph-name="communications" d="M941.861 287.89c-0.221 0-0.482 0-0.743 0-65.127 0-127.752 10.708-186.212 30.459l4.098-1.202c-7.664 2.563-16.488 4.042-25.657 4.042-21.362 0-40.85-8.026-55.612-21.228l0.080 0.071-114.615-87.113c-124.631 62.911-223.414 161.672-284.686 282.65l-1.668 3.631 84.407 111.909c15.010 14.988 24.295 35.705 24.295 58.591 0 9.041-1.449 17.744-4.128 25.889l0.167-0.585c-18.55 54.405-29.257 117.079-29.257 182.254 0 0.212 0 0.424 0 0.636v-0.033c-0.083 45.331-36.809 82.056-82.132 82.139h-188.058c-45.331-0.083-82.056-36.809-82.139-82.132v-0.008c0.583-519.941 421.92-941.278 941.804-941.861h0.056c45.331 0.083 82.056 36.809 82.139 82.132v187.546c-0.042 45.362-36.783 82.129-82.131 82.213h-0.008z" />
<glyph unicode="&#xe904;" glyph-name="arrow-right" d="M442.74 293.686c0.003 0 0.007 0 0.011 0 5.583 0 10.638 2.265 14.294 5.927v0l144.136 144.105c3.661 3.661 5.925 8.719 5.925 14.305s-2.264 10.644-5.925 14.305l-144.136 144.136c-3.665 3.665-8.728 5.932-14.32 5.932-11.185 0-20.252-9.067-20.252-20.252 0-5.592 2.267-10.656 5.932-14.32v0l121.918-121.918c2.020-2.021 3.27-4.813 3.27-7.897s-1.25-5.876-3.27-7.897l-121.887-121.887c-3.679-3.664-5.956-8.734-5.956-14.336 0-11.174 9.058-20.232 20.232-20.232 0.010 0 0.020 0 0.031 0h-0.002z" />
<glyph unicode="&#xe905;" glyph-name="arrow-left" d="M586.876 293.686c-0.003 0-0.007 0-0.011 0-5.583 0-10.638 2.265-14.294 5.927v0l-144.136 144.105c-3.661 3.661-5.925 8.719-5.925 14.305s2.264 10.644 5.925 14.305l144.136 144.136c3.665 3.665 8.728 5.932 14.32 5.932 11.185 0 20.252-9.067 20.252-20.252 0-5.592-2.267-10.656-5.932-14.32v0l-121.918-121.918c-2.020-2.021-3.27-4.813-3.27-7.897s1.25-5.876 3.27-7.897l121.887-121.887c3.679-3.664 5.956-8.734 5.956-14.336 0-11.174-9.058-20.232-20.232-20.232-0.010 0-0.020 0-0.031 0h0.002z" />
<glyph unicode="&#xe906;" glyph-name="play" d="M0 449.472c0.839 282.134 229.747 510.524 511.998 510.524 282.77 0 512-229.23 512-512s-229.23-512-512-512c-0.674 0-1.348 0.001-2.022 0.004h0.104c-282.059 1.634-510.080 230.665-510.080 512.952 0 0.183 0 0.366 0 0.549v-0.029zM756.48 440.448c-6.824 9.385-14.471 17.541-23.015 24.656l-0.217 0.176q-153.6 91.072-308.224 180.672c-25.6 15.040-46.208 4.48-46.208-24.832q-1.536-181.504 0-363.008c0-29.568 20.48-40.896 46.080-25.6q155.84 90.048 310.464 182.144c7.552 4.8 12.096 15.232 21.184 26.112z" />
<glyph unicode="&#xe907;" glyph-name="education" d="M178.445 242.338v241.341l283.486-116.467c6.592-2.815 14.261-4.451 22.312-4.451s15.721 1.636 22.693 4.594l-0.381-0.144 290.654 119.485v-244.359c-0.046-4.177-0.934-8.135-2.501-11.728l0.076 0.195c0-0.377-55.673-132.365-304.182-151.552-0.751-0.069-1.624-0.109-2.506-0.109s-1.755 0.039-2.617 0.117l0.111-0.008c-225.981 17.192-292.702 127.677-303.212 148.264-2.507 4.24-3.988 9.343-3.988 14.792 0 0.010 0 0.020 0 0.030v-0.002zM18.216 635.931l454.818 187.123c3.306 1.399 7.149 2.212 11.183 2.212s7.878-0.813 11.376-2.284l-0.193 0.072 454.764-187.123c10.775-4.565 18.196-15.051 18.196-27.271 0-7.023-2.451-13.473-6.544-18.542l0.044 0.056v-281.869l48.505-77.932c2.767-4.413 4.408-9.776 4.408-15.522 0-16.269-13.155-29.466-29.408-29.534h-106.179c-16.313 0.038-29.522 13.27-29.522 29.588 0 6.404 2.034 12.332 5.492 17.175l-0.061-0.090 47.697 76.369v253.629l-407.39-167.828c-3.306-1.399-7.149-2.212-11.183-2.212s-7.878 0.813-11.376 2.284l0.193-0.072-454.818 187.284c-10.784 4.544-18.217 15.026-18.217 27.244s7.433 22.7 18.023 27.171l0.194 0.073z" />
<glyph unicode="&#xe908;" glyph-name="email" d="M896 832h-796.48c-54.727-0.218-99.008-44.634-99.008-99.391 0-0.045 0-0.091 0-0.136v0.007l-0.512-597.248c0.181-54.89 44.63-99.339 99.503-99.52h796.497c54.89 0.181 99.339 44.63 99.52 99.503v597.265c-0.181 54.89-44.63 99.339-99.503 99.52h-0.017zM876.096 620.8l-352-219.968c-7.5-4.686-16.609-7.465-26.368-7.465s-18.868 2.779-26.58 7.588l0.212-0.123-351.936 219.968c-12.007 7.593-19.864 20.799-19.864 35.84 0 23.342 18.922 42.264 42.264 42.264 8.301 0 16.043-2.393 22.573-6.527l-0.173 0.102 333.44-208.512 333.44 208.512c6.357 4.031 14.099 6.424 22.4 6.424 23.342 0 42.264-18.922 42.264-42.264 0-15.041-7.857-28.247-19.691-35.738l-0.173-0.102z" />
<glyph unicode="&#xe909;" glyph-name="eye" d="M999.296 472.96c-7.339 14.677-183.125 359.040-497.963 359.040s-490.667-344.363-497.963-359.040c-2.118-4.166-3.36-9.085-3.36-14.293s1.241-10.127 3.444-14.476l-0.084 0.183c7.339-14.677 183.125-359.040 497.963-359.040s490.667 344.363 497.963 359.040c2.118 4.166 3.36 9.085 3.36 14.293s-1.241 10.127-3.444 14.476l0.084-0.183zM501.333 149.333c-241.28 0-397.227 246.699-432.896 309.333 35.584 62.72 191.019 309.333 432.896 309.333s397.227-246.699 432.896-309.333c-35.584-62.72-191.019-309.333-432.896-309.333zM501.333 618.667c-88.366 0-160-71.634-160-160s71.634-160 160-160c88.366 0 160 71.634 160 160v0c-0.097 88.326-71.674 159.903-159.991 160h-0.009zM501.333 362.667c-53.019 0-96 42.981-96 96s42.981 96 96 96c53.019 0 96-42.981 96-96v0c-0.049-53-43-95.951-95.995-96h-0.005z" />
<glyph unicode="&#xe90a;" glyph-name="download" d="M512 76.698c-11.869 0.020-22.569 5.004-30.139 12.986l-0.017 0.019-128 133.12c-7.733 8.222-12.485 19.326-12.485 31.539s4.752 23.317 12.507 31.563l-0.022-0.024c7.578 8.014 18.285 13.003 30.157 13.003s22.578-4.988 30.138-12.983l0.018-0.020 55.194-57.754v248.474c-0.033 0.624-0.051 1.355-0.051 2.090 0 23.583 19.118 42.701 42.701 42.701s42.701-19.118 42.701-42.701c0-0.735-0.019-1.466-0.055-2.192l0.004 0.102v-248.32l55.194 57.754c7.578 8.014 18.285 13.003 30.157 13.003s22.578-4.988 30.138-12.983l0.018-0.020c7.733-8.222 12.485-19.326 12.485-31.539s-4.752-23.317-12.507-31.563l0.022 0.024-128-133.12c-7.566-8.058-18.267-13.096-30.145-13.158h-0.012zM746.65 76.698h-21.299c-24.544 0-44.442 19.897-44.442 44.442s19.897 44.442 44.442 44.442h21.299c106.561 2.392 192.030 89.342 192.030 196.254 0 1.204-0.011 2.406-0.032 3.606l0.003-0.18c0.015 0.921 0.024 2.008 0.024 3.097 0 99.021-72.861 181.024-167.896 195.322l-1.088 0.135c-14.468 1.96-26.481 10.921-32.656 23.304l-0.112 0.248c-45.372 92.333-138.415 154.939-246.164 155.75l-0.108 0.001c-150.839-2.762-272.589-123.493-276.983-273.664l-0.009-0.41c-0.63-19.483-13.839-35.717-31.741-40.883l-0.311-0.077c-56.013-16.228-96.271-67.063-96.271-127.3 0-0.696 0.005-1.391 0.016-2.084l-0.001 0.105c-0.013-0.679-0.020-1.481-0.020-2.284 0-71.275 56.979-129.241 127.872-130.834l0.148-0.003h85.299c24.544 0 44.442-19.897 44.442-44.442s-19.897-44.442-44.442-44.442h-85.299c-118.411 2.646-213.388 99.262-213.388 218.061 0 1.422 0.014 2.841 0.041 4.257l-0.003-0.212c-0.010 0.792-0.016 1.728-0.016 2.664 0 89.567 53.188 166.711 129.702 201.57l1.386 0.565c20.723 183.18 173.080 324.716 359.218 328.289l0.36 0.005c67.017-0.056 129.63-18.865 182.888-51.461l-1.538 0.875c54.004-33.202 97.803-78.084 128.786-131.342l0.955-1.778c128.287-30.34 222.279-143.886 222.279-279.384 0-1.175-0.007-2.349-0.021-3.52l0.002 0.178c0.031-1.574 0.049-3.429 0.049-5.289 0-154.437-123.468-280.036-277.080-283.473l-0.32-0.006z" />
<glyph unicode="&#xe90b;" glyph-name="label" d="M566.464 959.68l345.6-24.128c23.705-1.528 44.781-11.683 60.348-27.324l0.004-0.004c15.453-15.693 25.551-36.698 27.309-60.030l0.019-0.322 24.128-345.6c0.236-2.437 0.37-5.269 0.37-8.133 0-11.215-2.060-21.948-5.823-31.843l0.205 0.615c-5.075-13.33-12.562-24.705-22.012-34.108l-0.004-0.004-465.664-465.088c-17.002-17.182-40.587-27.821-66.656-27.821s-49.654 10.64-66.648 27.813l-369.8 369.672c-17.154 17.226-27.778 40.966-27.84 67.188v0.012c0.173 25.892 10.785 49.272 27.833 66.169l0.007 0.007v0.512l465.152 465.088c9.314 9.333 20.497 16.797 32.94 21.783l0.66 0.233c9.415 3.556 20.299 5.614 31.664 5.614 2.89 0 5.748-0.133 8.57-0.393l-0.362 0.027zM839.424 776.128c18.177-18.027 29.429-43.011 29.429-70.624s-11.253-52.597-29.423-70.617l-0.007-0.007c-17.971-18.067-42.848-29.248-70.337-29.248-54.787 0-99.2 44.413-99.2 99.2 0 0.157 0 0.315 0.001 0.472v-0.024c-0.002 0.21-0.003 0.459-0.003 0.707 0 27.358 11.025 52.141 28.874 70.148l-0.007-0.007c18.164 17.733 42.985 28.718 70.372 28.864h0.028c0.218 0.002 0.476 0.003 0.735 0.003 27.208 0 51.839-11.032 69.665-28.866v0z" />
<glyph unicode="&#xe90c;" glyph-name="group" d="M512 960c-282.77 0-512-229.23-512-512s229.23-512 512-512c282.77 0 512 229.23 512 512v0c0 282.77-229.23 512-512 512v0zM696.832 635.392c54.575 0 98.816-44.241 98.816-98.816s-44.241-98.816-98.816-98.816c-54.575 0-98.816 44.241-98.816 98.816v0c0 0.076 0 0.166 0 0.256 0 54.433 44.127 98.56 98.56 98.56 0.090 0 0.18 0 0.27 0h-0.014zM389.632 716.288c66.734 0 120.832-54.098 120.832-120.832s-54.098-120.832-120.832-120.832c-66.644 0-120.686 53.952-120.832 120.562v0.014c0 0.019 0 0.042 0 0.064 0 66.772 54.075 120.915 120.822 121.024h0.011zM389.632 249.088v-192c-123.252 39.669-219.273 132.667-262.263 251.1l-0.905 2.852c53.76 57.6 187.904 86.528 263.168 86.528 34.876-0.758 68.362-4.822 100.723-11.895l-3.443 0.631c-55.653-22.62-94.696-75.182-97.27-137.162l-0.010-0.31zM512 38.4c-0.747-0.006-1.631-0.009-2.515-0.009-13.363 0-26.552 0.747-39.527 2.202l1.594-0.145v208.384c0 72.704 150.528 108.8 225.28 108.8 73.166-0.331 141.144-22.256 197.97-59.724l-1.362 0.844c-61.557-153.546-209.023-260.068-381.404-260.352h-0.036z" />
<glyph unicode="&#xe90d;" glyph-name="heart" d="M946.244 802.236c-50.683 55.1-123.129 89.504-203.61 89.504-0.683 0-1.365-0.002-2.046-0.007l0.105 0.001c-0.332 0.002-0.725 0.002-1.119 0.002-60.838 0-116.767-21.014-160.925-56.18l0.525 0.404c-24.979-19.681-46.506-42.162-64.591-67.286l-0.672-0.981c-18.755 26.106-40.282 48.588-64.562 67.734l-0.701 0.533c-43.633 34.762-99.563 55.776-160.4 55.776-0.393 0-0.786-0.001-1.179-0.003h0.061c-0.568 0.004-1.239 0.007-1.911 0.007-80.49 0-152.945-34.404-203.461-89.308l-0.178-0.196c-50.656-56.545-81.625-131.641-81.625-213.971 0-1.912 0.017-3.821 0.050-5.725l-0.004 0.286c2.537-97.056 40.864-184.697 102.206-250.637l-0.216 0.235c78.399-86.219 161.778-164.6 250.913-236.101l4.268-3.31c35.362-30.106 75.093-64.307 117.077-100.693 10.555-9.269 24.483-14.924 39.731-14.924s29.176 5.655 39.799 14.983l-0.068-0.059c41.643 36.386 81.92 70.588 117.077 100.693 93.402 74.824 176.781 153.226 253.593 237.707l1.588 1.773c61.102 65.713 99.405 153.355 101.912 249.905l0.010 0.497c0.030 1.648 0.048 3.592 0.048 5.539 0 82.286-30.943 157.345-81.828 214.176l0.269-0.306z" />
<glyph unicode="&#xe90e;" glyph-name="activity-bold" d="M315.733 21.333c-3.605-0.199-7.823-0.312-12.068-0.312-60.823 0-116.21 23.271-157.745 61.395l0.17-0.154c-37.866 41.369-61.066 96.708-61.066 157.467 0 4.223 0.112 8.42 0.333 12.587l-0.025-0.582v315.733c-0.198 3.608-0.311 7.831-0.311 12.081 0 60.919 23.213 116.417 61.277 158.13l-0.165-0.184c41.322 38.143 96.76 61.533 157.661 61.533 4.2 0 8.373-0.111 12.518-0.331l-0.579 0.024h343.467c-1.591-9.611-2.506-20.694-2.517-31.989v-0.011c0-0.013 0-0.028 0-0.043 0-95.732 77.485-173.367 173.16-173.61h0.024c11.254 0.139 22.161 1.188 32.778 3.079l-1.204-0.178v-344.235c0.199-3.603 0.312-7.82 0.312-12.064 0-60.761-23.22-116.099-61.269-157.625l0.157 0.174c-41.34-37.945-96.695-61.2-157.481-61.2-4.263 0-8.499 0.114-12.705 0.34l0.586-0.025zM392.107 492.373c-8.76-1.43-16.227-6.102-21.274-12.719l-0.059-0.081-126.251-164.267-2.603-3.84c-2.377-4.354-3.775-9.537-3.775-15.046 0-10.385 4.967-19.61 12.655-25.429l0.080-0.058c5.479-3.873 12.261-6.247 19.589-6.399l0.037-0.001h1.109c9.912 0.263 18.614 5.215 24.002 12.709l0.062 0.091 107.093 137.856 121.557-91.349 3.84-2.475c4.349-2.362 9.523-3.751 15.022-3.751 10.387 0 19.617 4.956 25.454 12.632l0.057 0.079 123.307 159.104-1.707-0.853c3.884 5.234 6.217 11.822 6.217 18.954 0 4.708-1.017 9.179-2.843 13.205l0.082-0.201c-4.584 10.333-14.295 17.639-25.816 18.721l-0.125 0.009c-1.195 0-2.389 0-3.584 0-10.771-0.035-20.314-5.262-26.262-13.308l-0.063-0.089-103.253-133.333-118.229 92.971c-5.6 4.39-12.748 7.040-20.514 7.040-0.003 0-0.006 0-0.009 0v0c-1.237 0-2.517-0.085-3.797-0.171zM733.013 771.84c0 56.79 46.037 102.827 102.827 102.827s102.827-46.037 102.827-102.827c0-56.79-46.037-102.827-102.827-102.827v0c-56.78 0.024-102.802 46.047-102.827 102.824v0.002z" />
<glyph unicode="&#xe90f;" glyph-name="chat-bold" d="M512.768 21.333v0c-73.197 0.068-142.064 18.54-202.243 51.038l2.264-1.118h-1.28c-7.793 3.436-14.463 7.215-20.704 11.567l0.394-0.26c-4.040 2.701-8.842 5.534-13.795 8.115l-0.882 0.418c-7.068 3.031-15.293 4.802-23.928 4.821h-0.008c-0.057 0-0.125 0-0.193 0-6.316 0-12.399-0.999-18.099-2.847l0.415 0.116c-24.893-9.108-57.149-18.625-90.073-26.414l-6.396-1.276h-0.981c-0.542-0.055-1.172-0.087-1.809-0.087-6.014 0-11.374 2.803-14.844 7.173l-0.030 0.039c-2.875 4.817-4.574 10.623-4.574 16.827 0 0.88 0.034 1.752 0.101 2.615l-0.007-0.114c9.17 39.486 19.427 72.694 31.705 104.905l-1.838-5.492c1.736 5.005 2.739 10.773 2.739 16.775 0 9.361-2.439 18.152-6.716 25.773l0.137-0.266-8.533 16.597c-30.315 56.587-48.149 123.782-48.213 195.138v2.623c0 235.641 191.025 426.666 426.667 426.666s426.667-191.025 426.667-426.667c0-235.386-190.612-426.253-425.902-426.666h-0.040zM708.693 502.187c-30.162 0-54.613-24.451-54.613-54.613s24.451-54.613 54.613-54.613c30.162 0 54.613 24.451 54.613 54.613v0c-0.024 30.152-24.461 54.589-54.611 54.613h-0.002zM512.043 502.187c-0.013 0-0.028 0-0.043 0-30.162 0-54.613-24.451-54.613-54.613s24.451-54.613 54.613-54.613c30.162 0 54.613 24.451 54.613 54.613v0c-0.048 30.128-24.446 54.541-54.564 54.613h-0.007zM315.307 502.187c-30.144-0.024-54.571-24.466-54.571-54.613 0-30.162 24.451-54.613 54.613-54.613s54.613 24.451 54.613 54.613v0c-0.024 30.167-24.485 54.613-54.656 54.613v0z" />
<glyph unicode="&#xe910;" glyph-name="wallet-bold" d="M743.168-12.8h-462.336c-4.521-0.253-9.811-0.397-15.134-0.397-73.617 0-140.8 27.547-191.802 72.896l0.293-0.256c-46.157 48.72-74.54 114.686-74.54 187.28 0 4.866 0.128 9.702 0.379 14.505l-0.028-0.672v374.886c-0.224 4.132-0.351 8.968-0.351 13.834 0 72.594 28.383 138.56 74.657 187.404l-0.117-0.124c50.709 45.093 117.892 72.64 191.509 72.64 5.324 0 10.613-0.144 15.866-0.428l-0.732 0.032h462.387c4.544 0.256 9.86 0.402 15.211 0.402 73.645 0 140.826-27.677 191.709-73.196l-0.276 0.243c46.158-49.223 74.511-115.625 74.511-188.65 0-5.050-0.136-10.069-0.403-15.053l0.030 0.695h-216.627v-1.741c-0.187 0.001-0.407 0.001-0.628 0.001-49.828 0-95.015-19.866-128.075-52.109l0.038 0.037c-32.924-31.704-53.38-76.155-53.402-125.385v-0.004c1.407-98.342 81.458-177.522 180.002-177.522 0.726 0 1.451 0.004 2.175 0.013l-0.11-0.001h216.627v-15.923c0.224-4.132 0.351-8.968 0.351-13.834 0-72.594-28.383-138.56-74.657-187.404l0.117 0.124c-50.717-45.122-117.921-72.688-191.563-72.688-5.304 0-10.575 0.143-15.809 0.425l0.73-0.031zM242.586 709.53c-0.111 0.001-0.242 0.002-0.373 0.002-21.028 0-38.145-16.746-38.742-37.63l-0.001-0.055c0.345-21.36 17.714-38.55 39.111-38.605h289.029c21.066 0 38.144 17.078 38.144 38.144s-17.078 38.144-38.144 38.144v0zM985.754 352.819h-175.821c-0.317-0.003-0.692-0.005-1.067-0.005-50.184 0-92.338 34.381-104.193 80.874l-0.161 0.744c-1.162 5.756-1.827 12.373-1.827 19.144 0 25.018 9.076 47.916 24.115 65.581l-0.119-0.143c19.539 22.999 48.382 37.583 80.639 37.888h178.434c0.123 0.001 0.269 0.002 0.415 0.002 20.681 0 37.487-16.593 37.831-37.192v-129.619c-0.653-20.648-17.511-37.147-38.239-37.222h-0.007zM814.592 497.050c-0.070 0-0.153 0.001-0.236 0.001-10.453 0-19.94-4.138-26.912-10.866l0.011 0.011c-7.058-6.785-11.461-16.287-11.52-26.818v-0.011c0.346-21.378 17.744-38.579 39.166-38.605h16.847c21.066 0 38.144 17.078 38.144 38.144s-17.078 38.144-38.144 38.144v0h-17.357z" />
<glyph unicode="&#xe911;" glyph-name="info-education" d="M949.589 550.144c-30.429 181.193-183.283 318.448-369.303 324.464l-0.617 0.016c-0.691 0.027-1.501 0.043-2.315 0.043-34.125 0-61.867-27.327-62.537-61.292l-0.001-0.063c0-0.683 0-4.267 0-4.864l19.2-286.208c2.441-35.186 31.583-62.805 67.176-62.805 0.008 0 0.017 0 0.025 0h-0.001c1.28 0 2.645 0 3.968 0l287.616 19.157c32.128 2.523 57.244 29.215 57.244 61.773 0 1.038-0.026 2.071-0.076 3.097l0.006-0.144v1.579c0.003 0.15 0.004 0.326 0.004 0.503 0 1.676-0.141 3.319-0.412 4.917l0.024-0.172zM601.259 523.435c-1.28-0.469-3.2 1.195-3.328 2.987l-20.437 284.245c154.946-4.911 282.038-118.188 308.237-266.299l0.285-1.946zM782.635 382.421c-12.477 11.1-29.009 17.881-47.126 17.881-1.523 0-3.036-0.048-4.535-0.142l0.205 0.010-241.451-14.805c-0.284-0.023-0.614-0.037-0.948-0.037-6.619 0-12.016 5.234-12.278 11.789l-0.001 0.024-16.811 242.645c-0.59 8.588-2.794 16.531-6.31 23.715l0.166-0.376c-11.325 25.134-36.157 42.314-65.001 42.314-4.808 0-9.505-0.477-14.045-1.387l0.454 0.076c-0.831-0.102-1.555-0.237-2.264-0.411l0.13 0.027c-164.263-35.658-285.745-179.084-287.273-351.15l-0.001-0.168c-0.081-2.28-0.128-4.959-0.128-7.649 0-12.74 1.039-25.238 3.038-37.412l-0.18 1.327c5.575-48.993 20.722-93.458 43.544-132.93l-0.877 1.645c58.531-105.23 165.729-177.219 290.359-185.626l1.097-0.059c8.533-0.555 16.555-0.853 24.832-0.853 190.804 0.324 346.822 148.816 359.154 336.544l0.057 1.078c0 0.896 0 4.267 0 5.163-1.225 19.48-10.149 36.662-23.734 48.704l-0.074 0.064zM641.835 128c-51.847-45.495-120.24-73.251-195.117-73.251-111.425 0-208.495 61.466-259.151 152.341l-0.772 1.508c-18.166 31.337-30.682 68.18-35.124 107.469l-0.118 1.288c-1.401 8.301-2.202 17.863-2.202 27.613 0 2.188 0.040 4.367 0.12 6.535l-0.009-0.313c0.968 141.374 100.152 259.308 232.677 289.033l1.99 0.375 2.859 0.512c3.243 0.64 6.656-0.896 8.875-6.101l16.811-242.432c2.947-39.991 36.117-71.321 76.604-71.321 1.705 0 3.397 0.056 5.075 0.165l-0.228-0.012h0.299l240.725 14.805c3.32-0.095 6.156-2.072 7.487-4.897l0.022-0.052c-5.444-81.422-43.22-153.081-100.468-202.963l-0.353-0.301z" />
<glyph unicode="&#xe912;" glyph-name="lock" d="M828.524 516.931v129.347c0 173.427-140.591 314.018-314.018 314.018s-314.018-140.591-314.018-314.018v0-128.216c-22.848-8.015-38.937-29.399-38.937-54.541 0-1.062 0.029-2.117 0.085-3.165l-0.006 0.146v-175.805c0-194.873 157.976-352.849 352.849-352.849s352.849 157.976 352.849 352.849v175.859c0.022 0.591 0.034 1.285 0.034 1.982 0 25.075-16.049 46.402-38.436 54.268l-0.403 0.123zM581.578 139.183c0.166-0.634 0.261-1.362 0.261-2.112 0-4.792-3.885-8.677-8.677-8.677-0.149 0-0.296 0.004-0.443 0.011l0.021-0.001h-115.119c-0.126-0.007-0.274-0.010-0.423-0.010-4.792 0-8.677 3.885-8.677 8.677 0 0.75 0.095 1.478 0.274 2.172l-0.013-0.060 18.432 97.765c-14.022 12.855-22.781 31.256-22.781 51.703 0 38.695 31.368 70.063 70.063 70.063s70.063-31.368 70.063-70.063c0-19.892-8.29-37.848-21.603-50.601l-0.025-0.024zM720.249 523.183h-411.432v122.826c0 113.629 92.114 205.743 205.743 205.743s205.743-92.114 205.743-205.743v0z" />
<glyph unicode="&#xe913;" glyph-name="message-circle" d="M41.636-64c-23.006 0.032-41.644 18.69-41.644 41.7 0 4.697 0.777 9.212 2.208 13.425l-0.087-0.294 93.97 281.847c-27.668 59.155-43.814 128.445-43.814 201.506 0 189.060 108.113 352.87 265.887 432.977l2.763 1.273c63.453 31.498 138.060 50.312 216.967 51.242l0.311 0.003h26.071c247.766-12.826 445.603-209.885 459.608-456.142l0.058-1.282v-28.441c-0.255-268.211-217.596-485.574-485.774-485.865h-1.309c-72.611 0.075-141.434 16.215-203.131 45.055l2.956-1.241-281.847-93.97c-3.646-1.146-7.839-1.806-12.186-1.806-0.355 0-0.709 0.004-1.062 0.013l0.052-0.001zM537.43 876.727c-222.019-0.291-401.889-180.34-401.889-402.4 0-65.638 15.716-127.606 43.589-182.345l-1.055 2.283c2.84-5.486 4.506-11.976 4.506-18.854 0-4.713-0.782-9.243-2.223-13.467l0.087 0.294-72.96-218.88 218.944 73.024c3.92 1.325 8.435 2.090 13.128 2.090 6.889 0 13.394-1.648 19.14-4.571l-0.24 0.111c52.399-26.461 114.161-42.124 179.542-42.533l0.135-0.001c222.255 0.146 402.401 180.224 402.656 402.439v26.288c-12.37 203.549-174.984 365.386-377.739 376.477l-1.025 0.045h-24.533z" />
<glyph unicode="&#xe914;" glyph-name="open-lock" d="M796.618 523.183h-487.801v122.826c0.088 113.577 92.181 205.616 205.77 205.616 101.461 0 185.772-73.434 202.681-170.052l0.179-1.233c4.442-25.8 26.649-45.181 53.383-45.181 29.894 0 54.127 24.234 54.127 54.127 0 3.16-0.271 6.257-0.79 9.268l0.046-0.322c-26.025 149.404-154.729 261.545-309.625 261.545-173.364 0-313.918-140.476-314.045-313.811v-127.904c-22.848-8.015-38.937-29.399-38.937-54.541 0-1.062 0.029-2.117 0.085-3.165l-0.006 0.146v-175.805c0-194.873 157.976-352.849 352.849-352.849s352.849 157.976 352.849 352.849v175.859c-1.362 35-30.065 62.857-65.274 62.857-1.932 0-3.845-0.084-5.735-0.248l0.245 0.017zM581.578 139.183c0.166-0.634 0.261-1.362 0.261-2.112 0-4.792-3.885-8.677-8.677-8.677-0.149 0-0.296 0.004-0.443 0.011l0.021-0.001h-115.119c-0.126-0.007-0.274-0.010-0.423-0.010-4.792 0-8.677 3.885-8.677 8.677 0 0.75 0.095 1.478 0.274 2.172l-0.013-0.060 18.432 97.765c-14.022 12.855-22.781 31.256-22.781 51.703 0 38.695 31.368 70.063 70.063 70.063s70.063-31.368 70.063-70.063c0-19.892-8.29-37.848-21.603-50.601l-0.025-0.024z" />
<glyph unicode="&#xe915;" glyph-name="arrow-down" d="M1045.504 682.24c0-0.028 0-0.061 0-0.094 0-17.763-7.208-33.843-18.858-45.474l-458.326-458.412c-11.646-11.661-27.743-18.874-45.525-18.874s-33.879 7.213-45.525 18.874l-458.412 458.412c-11.651 11.651-18.857 27.747-18.857 45.525 0 35.557 28.825 64.383 64.383 64.383 17.779 0 33.874-7.206 45.525-18.857l387.755-387.755c6.436-6.421 15.32-10.391 25.131-10.391s18.694 3.97 25.131 10.392l387.668 387.754c11.652 11.615 27.728 18.796 45.483 18.796 35.56 0 64.391-28.809 64.427-64.361v-0.003z" />
<glyph unicode="&#xe916;" glyph-name="time" d="M695.537 390.656h-183.537c-18.995 0-34.394 15.399-34.394 34.394v0 275.396c0 19.012 15.412 34.424 34.424 34.424s34.424-15.412 34.424-34.424v0-240.941h149.082c19.012 0 34.424-15.412 34.424-34.424s-15.412-34.424-34.424-34.424v0M511.94 929.882c-266.136 0-481.882-215.746-481.882-481.882s215.746-481.882 481.882-481.882c266.136 0 481.882 215.746 481.882 481.882v0c0 266.136-215.746 481.882-481.882 481.882v0" />
<glyph unicode="&#xe917;" glyph-name="search" d="M573.054 960c249.051 0 450.946-201.896 450.946-450.946s-201.896-450.946-450.946-450.946c-249.051 0-450.946 201.896-450.946 450.946v0c0.291 248.934 202.013 450.655 450.918 450.946h0.028zM573.054 141.261c203.001 0.073 367.537 164.654 367.537 367.665 0 203.056-164.609 367.665-367.665 367.665-203.011 0-367.592-164.536-367.665-367.53v-0.007c0.182-203.054 164.74-367.611 367.776-367.793h0.017zM12.153 7.128l238.65 238.65c7.407 6.884 17.367 11.108 28.315 11.108 22.997 0 41.641-18.643 41.641-41.641 0-10.947-4.224-20.908-11.132-28.34l0.024 0.026-238.65-238.65c-7.407-6.884-17.367-11.108-28.315-11.108-22.997 0-41.641 18.643-41.641 41.641 0 10.947 4.224 20.908 11.132 28.34l-0.024-0.026z" />
<glyph unicode="&#xe918;" d="M963.73-20.919c-0.008 0-0.018 0-0.027 0-15.42 0-29.378 6.262-39.469 16.383l-397.971 397.971c-10.124 10.114-16.387 24.093-16.387 39.534s6.263 29.419 16.387 39.533v0l397.97 397.97c10.118 10.118 24.095 16.375 39.534 16.375 30.878 0 55.909-25.031 55.909-55.909 0-15.439-6.258-29.416-16.375-39.534l-336.457-336.457c-5.656-5.597-9.158-13.361-9.158-21.943s3.502-16.346 9.156-21.94l336.46-336.46c9.93-10.081 16.061-23.927 16.061-39.206 0-30.749-24.835-55.697-55.541-55.88h-0.017z" />
<glyph unicode="&#xe919;" d="M453.925-20.919c-0.008 0-0.018 0-0.027 0-15.42 0-29.378 6.262-39.469 16.383l-397.971 397.971c-10.124 10.114-16.387 24.093-16.387 39.534s6.263 29.419 16.387 39.533v0l397.97 397.97c10.118 10.118 24.095 16.375 39.534 16.375 30.878 0 55.909-25.031 55.909-55.909 0-15.439-6.258-29.416-16.375-39.534l-336.457-336.457c-5.656-5.597-9.158-13.361-9.158-21.943s3.502-16.346 9.156-21.94l336.46-336.46c9.93-10.081 16.061-23.927 16.061-39.206 0-30.749-24.835-55.697-55.541-55.88h-0.017z" />
<glyph unicode="&#xe91a;" glyph-name="settings" d="M904.491 320.427c-8.005 29.954-27.231 54.453-52.789 69.214l-0.544 0.29c-14.93 8.592-24.821 24.458-24.821 42.633 0 9.256 2.565 17.913 7.024 25.299l-0.123-0.22c4.369 7.589 10.519 13.711 17.898 17.924l0.235 0.124c33.962 20.161 56.369 56.645 56.369 98.363 0 19.473-4.882 37.806-13.489 53.841l0.299-0.609c-0.512 1.109-1.067 2.219-1.664 3.243l-26.581 46.165c-20.128 34.060-56.659 56.545-98.441 56.545-20.933 0-40.547-5.644-57.405-15.493l0.54 0.291c-7.142-4.268-15.752-6.791-24.953-6.791-18.062 0-33.853 9.726-42.421 24.226l-0.125 0.229c-3.774 6.212-6.141 13.655-6.482 21.623l-0.003 0.095c0.021 0.827 0.034 1.8 0.034 2.777 0 62.919-50.762 113.983-113.566 114.471h-53.55c-62.451-0.097-113.042-50.734-113.067-113.192v-0.002c-0.43-27.003-22.327-48.75-49.347-48.939h-0.018c-8.672 0.107-16.744 2.585-23.625 6.813l0.201-0.115c-16.24 9.47-35.748 15.060-56.562 15.060-41.568 0-77.929-22.297-97.774-55.584l-0.288-0.521-28.885-47.616c-9.453-16.233-15.034-35.729-15.034-56.528 0-41.79 22.528-78.319 56.102-98.105l0.532-0.29c14.927-8.752 24.791-24.717 24.791-42.987s-9.864-34.234-24.558-42.86l-0.234-0.127c-34.195-19.897-56.815-56.372-56.815-98.13 0-20.659 5.536-40.025 15.207-56.695l-0.29 0.542 0.256-0.427 26.624-45.867c19.714-35.3 56.844-58.777 99.458-58.777 20.633 0 39.98 5.504 56.653 15.123l-0.549-0.292c7.018 4.086 15.446 6.499 24.437 6.499 18.317 0 34.296-10.011 42.764-24.859l0.127-0.242c3.937-6.472 6.316-14.273 6.442-22.621v-0.035c0.097-62.712 50.909-113.524 113.612-113.621h53.342c62.535 0.24 113.187 50.773 113.621 113.239v0.041c0 0.077-0.001 0.167-0.001 0.258 0 27.020 21.783 48.952 48.746 49.193h0.023c8.859-0.259 17.088-2.728 24.224-6.873l-0.245 0.131c16.245-9.482 35.761-15.080 56.586-15.080 41.621 0 78.020 22.363 97.835 55.728l0.288 0.525 28.288 47.275c9.72 16.272 15.467 35.89 15.467 56.851 0 10.265-1.378 20.208-3.96 29.654l0.183-0.787zM837.717 267.264l-28.373-47.317c-8.805-14.878-24.771-24.699-43.031-24.699-9.096 0-17.622 2.437-24.963 6.693l0.239-0.128c-16.179 9.301-35.527 14.888-56.159 15.146l-0.076 0.001c-62.119-0.459-112.299-50.923-112.299-113.106 0-0.106 0-0.212 0-0.318v0.016c-0.265-27.229-22.365-49.209-49.615-49.28h-53.34c-27.421 0.073-49.622 22.318-49.622 49.749 0 0.060 0 0.12 0 0.18v-0.009c-0.248 20.506-6.021 39.612-15.895 55.964l0.279-0.497c-19.938 33.793-56.162 56.107-97.598 56.107-0.053 0-0.107 0-0.16 0h0.008c-0.032 0-0.069 0-0.107 0-20.78 0-40.235-5.674-56.9-15.558l0.517 0.284c-6.895-3.934-15.151-6.254-23.949-6.254-4.923 0-9.676 0.726-14.158 2.077l0.347-0.090c-13.020 3.895-23.557 12.626-29.737 24.057l-0.13 0.263-26.453 45.525-0.597 1.067c-4.058 6.998-6.453 15.398-6.453 24.358 0 18.161 9.841 34.023 24.48 42.545l0.234 0.126c34.192 20.013 56.794 56.562 56.794 98.389s-22.602 78.376-56.258 98.099l-0.536 0.29c-14.924 8.742-24.788 24.699-24.788 42.96 0 8.835 2.309 17.131 6.357 24.318l-0.129-0.249 28.843 47.488c8.745 14.912 24.696 24.767 42.948 24.767 8.943 0 17.334-2.366 24.58-6.506l-0.243 0.128c15.87-9.524 34.984-15.225 55.417-15.402h0.050c62.431 0.333 112.992 50.684 113.663 113.003l0.001 0.064c0.024 27.089 21.978 49.042 49.064 49.067h55.128c26.774-1.095 48.065-23.065 48.065-50.009 0-0.899-0.024-1.793-0.071-2.681l0.005 0.124c0.262-20.51 6.049-39.615 15.937-55.963l-0.278 0.496c20.079-33.397 56.121-55.395 97.301-55.395 21.1 0 40.851 5.775 57.758 15.831l-0.521-0.287c7.094 4.139 15.616 6.583 24.708 6.583 18.221 0 34.151-9.813 42.792-24.442l0.126-0.231 25.173-43.648c0.458-1.062 0.886-1.917 1.354-2.746l-0.074 0.143c4.077-7.055 6.482-15.519 6.482-24.544 0-18.118-9.693-33.972-24.177-42.658l-0.226-0.125c-34.244-19.97-56.89-56.526-56.89-98.371 0-42.053 22.872-78.764 56.854-98.372l0.548-0.292c14.648-8.67 24.317-24.389 24.317-42.367 0-8.999-2.422-17.431-6.651-24.682l0.126 0.233zM496.853 577.195c-79.788 0-144.469-64.681-144.469-144.469s64.681-144.469 144.469-144.469c79.788 0 144.469 64.681 144.469 144.469v0c-0.097 79.749-64.72 144.372-144.46 144.469h-0.009zM496.853 352.256c-44.442 0-80.469 36.027-80.469 80.469s36.027 80.469 80.469 80.469c44.442 0 80.469-36.027 80.469-80.469v0c0-0.013 0-0.028 0-0.043 0-44.459-36.017-80.506-80.465-80.555h-0.005z" />
<glyph unicode="&#xe91b;" glyph-name="share" d="M186.187 960c102.821-0.053 186.154-83.419 186.154-186.248 0-13.804-1.502-27.258-4.351-40.207l0.228 1.234 329.126-164.563c39.136 31.142 86.573 53.596 138.436 63.642l2.033 0.328c102.824-0.006 186.177-83.362 186.177-186.187 0-102.828-83.359-186.187-186.187-186.187-55.953 0-106.141 24.681-140.271 63.751l-0.187 0.219-329.126-164.563c2.632-11.739 4.14-25.221 4.14-39.056 0-102.895-83.413-186.308-186.308-186.308s-186.308 83.413-186.308 186.308c0 102.895 83.413 186.308 186.308 186.308 55.987 0 106.206-24.696 140.358-63.788l0.187-0.219 329.126 164.563c-2.639 11.768-4.151 25.284-4.151 39.153s1.512 27.385 4.38 40.392l-0.229-1.239-329.126 164.563c-34.327-39.466-84.627-64.271-140.72-64.271-102.828 0-186.187 83.359-186.187 186.187s83.359 186.187 186.187 186.187c0.109 0 0.219 0 0.328 0h-0.017zM186.187 680.689c51.431 0 93.124 41.693 93.124 93.124s-41.693 93.124-93.124 93.124c-51.431 0-93.124-41.693-93.124-93.124v0c-0.001-0.144-0.001-0.313-0.001-0.483 0-51.165 41.477-92.642 92.642-92.642 0.17 0 0.34 0 0.509 0.001h-0.026zM837.813 354.876c51.43 0.001 93.123 41.693 93.123 93.124s-41.693 93.124-93.124 93.124c-36.259 0-67.679-20.723-83.060-50.972l-0.244-0.529c-6.192-12.127-9.82-26.451-9.82-41.623 0-51.431 41.693-93.124 93.124-93.124 0 0 0.001 0 0.001 0v0zM186.187 29.064c51.431 0 93.124 41.693 93.124 93.124s-41.693 93.124-93.124 93.124c-51.431 0-93.124-41.693-93.124-93.124 0-0.021 0-0.042 0-0.063v0.003c0.069-51.391 41.728-93.029 93.12-93.064h0.003z" />
<glyph unicode="&#xe91c;" glyph-name="sort" d="M556.574 30.328v0c-20.147-55.724-72.594-94.83-134.174-94.83s-114.027 39.106-133.86 93.839l-0.314 0.991h-150.588c-26.198 0-47.435 21.238-47.435 47.435s21.238 47.435 47.435 47.435v0h150.588c20.147 55.724 72.594 94.83 134.174 94.83s114.027-39.106 133.86-93.839l0.314-0.991h340.149c26.198 0 47.435-21.238 47.435-47.435s-21.238-47.435-47.435-47.435v0zM744.93 305.423c-61.59 0.031-114.037 39.142-133.89 93.879l-0.314 0.992h-472.968c-26.198 0-47.435 21.238-47.435 47.435s21.238 47.435 47.435 47.435v0h472.968c20.147 55.724 72.594 94.83 134.174 94.83s114.027-39.106 133.86-93.839l0.314-0.991h17.649c26.198 0 47.435-21.238 47.435-47.435s-21.238-47.435-47.435-47.435v0h-17.649c-20.161-55.71-72.578-94.813-134.137-94.871h-0.007zM896.723 770.259c26.198 0 47.435 21.238 47.435 47.435s-21.238 47.435-47.435 47.435v0h-472.968c-20.147 55.724-72.594 94.83-134.174 94.83s-114.027-39.106-133.86-93.839l-0.314-0.991h-17.589c-26.198 0-47.435-21.238-47.435-47.435s21.238-47.435 47.435-47.435v0h17.589c20.147-55.724 72.594-94.83 134.174-94.83s114.027 39.106 133.86 93.839l0.314 0.991z" />
<glyph unicode="&#xe91d;" glyph-name="user-bold" d="M440.32-64c-15.36 0-25.6 5.12-40.96 5.12-0.946-0.007-2.065-0.012-3.185-0.012-40.766 0-80.221 5.612-117.635 16.105l3.060-0.733c-87.040 15.36-143.36 46.080-163.84 92.16-9.682 16.949-15.391 37.248-15.391 58.88s5.709 41.932 15.702 59.473l-0.311-0.593c25.6 46.080 76.8 76.8 163.84 92.16 35.198 9.271 75.71 14.843 117.439 15.357l0.321 0.003c32.936 2.446 71.345 3.841 110.080 3.841s77.144-1.394 115.181-4.135l-5.101 0.295c0.946 0.007 2.065 0.012 3.185 0.012 40.766 0 80.221-5.612 117.635-16.105l-3.060 0.733c87.040-15.36 143.36-46.080 163.84-92.16 9.635-16.118 15.333-35.554 15.333-56.32s-5.697-40.202-15.614-56.829l0.281 0.509c-25.6-46.080-76.8-76.8-163.84-92.16-35.198-9.271-75.71-14.843-117.439-15.357l-0.321-0.003c-28.18-3.395-60.812-5.332-93.896-5.332-6.591 0-13.165 0.077-19.719 0.23l0.975-0.018h-66.56zM245.76 683.52c-0.012 0.941-0.018 2.052-0.018 3.165 0 148.485 118.367 269.324 265.89 273.307l0.369 0.008c150.262-3.432 270.824-125.788 271.36-276.428v-0.052c0.005-0.613 0.008-1.339 0.008-2.065 0-150.487-121.127-272.684-271.204-274.413l-0.164-0.001c-147.481 2.008-266.264 122.032-266.264 269.801 0 1.268 0.009 2.535 0.026 3.799l-0.002-0.191z" />
<glyph unicode="&#xe91e;" glyph-name="user" d="M526.933 403.2c129.603 0 234.667 105.064 234.667 234.667s-105.064 234.667-234.667 234.667c-129.603 0-234.667-105.064-234.667-234.667v0c-0.001-0.254-0.002-0.554-0.002-0.855 0-129.132 104.682-233.813 233.813-233.813 0.301 0 0.601 0.001 0.901 0.002h-0.046zM526.933 808.533c94.257 0 170.667-76.41 170.667-170.667s-76.41-170.667-170.667-170.667c-94.257 0-170.667 76.41-170.667 170.667v0c0 94.257 76.41 170.667 170.667 170.667v0zM868.267 206.933c-30.092 48.249-81.207 80.955-140.207 85.298l-0.593 0.035c-30.724 8.082-66.005 12.748-102.368 12.8h-0.032c-28.715 2.038-62.222 3.2-96 3.2s-67.285-1.162-100.482-3.447l4.482 0.247-102.4-12.8c-58.317-5.392-108.569-35.906-140.4-80.477l-0.4-0.589-4.267-4.267c-7.977-16.216-12.642-35.296-12.642-55.467s4.665-39.251 12.976-56.222l-0.334 0.755c30.092-48.249 81.207-80.955 140.207-85.298l0.593-0.035c30.724-8.082 66.005-12.748 102.368-12.8h0.032c9.612-2.816 20.655-4.436 32.076-4.436 2.224 0 4.435 0.061 6.629 0.183l-0.305-0.013h66.133c4.65-0.112 10.128-0.177 15.62-0.177 27.57 0 54.764 1.614 81.491 4.753l-3.245-0.31c39.275 4.161 74.127 10.17 108.189 18.22l-5.789-1.154c60.806 4.479 113.17 37.037 144.628 84.627l0.439 0.707c5.177 13.678 8.173 29.49 8.173 46.003 0 22.141-5.388 43.023-14.924 61.407l0.351-0.743zM812.8 121.6c-23.802-28.848-58.46-48.001-97.633-51.167l-0.5-0.033c-28.126-8.067-60.438-12.736-93.831-12.8h-0.035c-22.369-2.039-48.382-3.202-74.667-3.202s-52.297 1.163-77.989 3.44l3.323-0.237c-1.466-0.106-3.176-0.166-4.9-0.166-8.961 0-17.543 1.625-25.467 4.597l0.5-0.164-93.867 12.8c-39.473 3.98-73.887 22.929-97.967 51.001l-0.166 0.199c-2.896 6.986-4.578 15.099-4.578 23.605 0 2.205 0.113 4.384 0.334 6.531l-0.022-0.269c-0.101 1.243-0.159 2.69-0.159 4.151 0 7.754 1.629 15.127 4.562 21.796l-0.136-0.347c23.996 29.469 58.283 49.755 97.31 55.369l0.823 0.097c28.68 8.133 61.617 12.809 95.646 12.809 0.874 0 1.748-0.003 2.621-0.009l-0.134 0.001c27.446 2.039 59.454 3.201 91.733 3.201s64.287-1.162 95.984-3.447l-4.25 0.246 93.867-12.8c39.175-5.124 73.252-23.791 98.015-51.068l0.118-0.132c-0.168-22.821-3.272-44.844-8.95-65.808l0.417 1.808z" />
<glyph unicode="&#xe91f;" glyph-name="pie" d="M951.467 551.68c-29.432 182.139-183.6 320.164-370.776 324.259l-0.424 0.007c-0.647 0.024-1.406 0.038-2.169 0.038-33.431 0-60.669-26.517-61.828-59.665l-0.003-0.106v-4.267l21.333-285.867c2.928-35.587 32.257-63.434 68.211-63.999l0.056-0.001h4.267l285.867 17.067c31.092 1.491 55.736 27.063 55.736 58.39 0 1.975-0.098 3.928-0.289 5.853l0.020-0.243zM601.6 521.813v0l-25.6 285.867c155.168-3.996 282.519-118.149 306.949-266.951l0.251-1.849zM780.8 381.013c-12.821 10.674-29.462 17.153-47.616 17.153-1.261 0-2.514-0.031-3.76-0.093l0.175 0.007-238.933-12.8c-0.408-0.051-0.881-0.081-1.361-0.081-6.362 0-11.52 5.158-11.52 11.52 0 0.48 0.029 0.952 0.086 1.416l-0.006-0.056-17.067 243.2c-1.174 8.351-2.665 15.572-4.563 22.626l0.296-1.293c-12.156 25.734-37.897 43.221-67.722 43.221-3.2 0-6.352-0.201-9.446-0.592l0.368 0.038c-164.2-33.969-285.867-177.397-285.867-349.242 0-0.219 0-0.439 0.001-0.658v0.034c-0.109-2.107-0.172-4.575-0.172-7.057 0-12.649 1.619-24.921 4.661-36.618l-0.223 1.008c21.447-171.747 159.492-305.406 331.461-319.909l1.339-0.091h25.6c190.449 0.311 346.165 148.59 358.345 336.001l0.055 1.065v4.267c-7.749 18.707-19.374 34.44-33.956 46.787l-0.177 0.146zM640 129.28c-51.829-44.45-119.709-71.507-193.908-71.507-89.175 0-169.222 39.082-223.947 101.052l-0.279 0.322-38.4 51.2c-16.165 30.906-28.117 66.814-33.894 104.752l-0.24 1.915c-1.019 5.131-1.602 11.031-1.602 17.067s0.583 11.935 1.696 17.645l-0.094-0.579c0.781 141.614 100 259.833 232.67 289.755l1.997 0.379h4.267c4.267 0 8.533 0 8.533-4.267l17.067-243.2c3.615-40.804 37.633-72.559 79.068-72.559 0.703 0 1.403 0.009 2.102 0.027l-0.103-0.002 238.933 12.8c4.267 0 4.267 0 8.533-4.267-5.923-80.777-44.283-151.578-101.965-200.176l-0.435-0.357z" />
<glyph unicode="&#xe921;" glyph-name="star" d="M947.2 580.267c-10.562 12.98-25.331 22.179-42.206 25.524l-0.461 0.076-221.867 34.133-98.133 200.533c-7.84 12.050-17.817 22.027-29.482 29.632l-0.384 0.235c-8.85 4.779-19.37 7.588-30.547 7.588-25.946 0-48.357-15.137-58.883-37.063l-0.17-0.392-102.4-200.533-221.867-34.133c-13.15-3.257-24.61-9.174-34.275-17.181l0.142 0.114c-11.866-12.077-19.19-28.65-19.19-46.933s7.325-34.856 19.2-46.943l-0.010 0.010 162.133-157.867-38.4-217.6c-0.339-2.578-0.532-5.559-0.532-8.586 0-33.615 23.849-61.661 55.551-68.138l0.448-0.076h12.8c11.048 0.912 21.198 3.964 30.3 8.741l-0.433-0.207 200.533 102.4 196.267-102.4c7.317-4.573 16.204-7.284 25.725-7.284 6.082 0 11.905 1.107 17.28 3.129l-0.338-0.112c32.131 5.747 56.203 33.479 56.203 66.834 0 3.517-0.268 6.971-0.783 10.343l0.048-0.378-38.4 221.867 157.867 153.6c11.353 10.756 18.418 25.941 18.418 42.775 0 14.657-5.356 28.064-14.217 38.369l0.065-0.078zM733.867 384c-13.404-13.43-21.692-31.968-21.692-52.443 0-2.567 0.13-5.104 0.385-7.604l-0.026 0.314 34.133-217.6-196.267 102.4c-8.488 5.332-18.808 8.496-29.867 8.496s-21.378-3.163-30.104-8.634l0.237 0.139-200.533-102.4 38.4 217.6c0.479 3.215 0.753 6.925 0.753 10.699 0 18.72-6.735 35.867-17.915 49.15l0.095-0.116-162.133 157.867 4.267 4.267 221.867 34.133c21.27 4.849 39.098 17.114 51.023 33.871l0.177 0.262 102.4 200.533 98.133-196.267c8.583-20.214 28.266-34.133 51.2-34.133v0l221.867-34.133z" />
<glyph unicode="&#xe923;" glyph-name="student" d="M446.836-75.636c-13.964 0-23.273 4.655-37.236 4.655-0.806-0.006-1.759-0.009-2.713-0.009-37.123 0-73.055 5.101-107.132 14.64l2.791-0.667c-79.127 13.964-130.327 41.891-148.945 83.782-8.802 15.408-13.992 33.861-13.992 53.527s5.19 38.12 14.275 54.066l-0.283-0.539c23.273 41.891 69.818 69.818 148.945 83.782 32.023 8.51 68.86 13.581 106.82 13.962l0.235 0.002c29.941 2.224 64.859 3.491 100.073 3.491s70.131-1.268 104.71-3.76l-4.637 0.268c0.806 0.006 1.759 0.009 2.713 0.009 37.123 0 73.055-5.101 107.132-14.64l-2.791 0.667c79.127-13.964 130.327-41.891 148.945-83.782 8.759-14.653 13.939-32.322 13.939-51.2s-5.179-36.547-14.194-51.663l0.256 0.463c-23.273-41.891-69.818-69.818-148.945-83.782-32.023-8.51-68.86-13.581-106.82-13.962l-0.235-0.002c-25.618-3.086-55.283-4.847-85.36-4.847-5.992 0-11.968 0.070-17.927 0.209l0.887-0.016h-60.509zM251.345 578.327c-0.001 0.21-0.001 0.459-0.001 0.709 0 39.087 10.361 75.754 28.487 107.404l-0.558-1.058v69.818l-23.273 9.309-51.2 23.273v-13.964c9.309 0 13.964-9.309 13.964-18.618-0.471-7.515-6.449-13.493-13.921-13.961l-0.043-0.002 13.964-181.527c0.111-1.356 0.174-2.935 0.174-4.528 0-8.459-1.777-16.502-4.977-23.778l0.149 0.379-9.309-32.582c-4.655-9.309-4.655-9.309-9.309 0l-9.309 37.236c-3.052 6.897-4.828 14.94-4.828 23.399 0 1.594 0.063 3.173 0.187 4.735l-0.013-0.206 13.964 181.527c-6.443 2.589-10.909 8.784-10.909 16.023 0 2.631 0.59 5.124 1.645 7.354l-0.045-0.105c0 4.655 9.309 9.309 13.964 9.309v13.964l-23.273 9.309c-18.618 9.309-18.618 23.273 0 27.927l279.273 121.018c10.329 4.297 22.328 6.793 34.909 6.793s24.58-2.496 35.527-7.020l-0.618 0.226 279.273-121.018c18.618-9.309 18.618-23.273 0-27.927l-74.473-32.582-23.273-9.309v-69.818c16.434-31.835 26.069-69.483 26.069-109.382 0-133.932-108.574-242.506-242.506-242.506-94.034 0-175.567 53.521-215.8 131.762l-0.636 1.362c-14.191 31.487-22.701 68.205-23.27 106.846l-0.002 0.209z" />
<glyph unicode="&#xe924;" glyph-name="teacher" d="M107.297 648.793c0 122.943 99.665 222.609 222.609 222.609s222.609-99.665 222.609-222.609c0-122.943-99.665-222.609-222.609-222.609v0c-122.943 0-222.609 99.665-222.609 222.609v0zM610.393 92.271l106.852 66.783 138.017 84.591 93.496 57.878c47.917 30.202 79.454 82.579 80.138 142.369l0.001 0.101v4.452c0 46.718-37.873 84.591-84.591 84.591v0c-1.297 0.106-2.807 0.166-4.331 0.166-8.091 0-15.785-1.699-22.744-4.761l0.363 0.142-204.8-71.235-84.591-31.165c-88.098-33.921-203.916-70.51-322.082-101.282l-25.188-5.57c-17.809-4.452-80.139-4.452-97.948-8.904-103.090-11.128-182.641-97.673-182.641-202.797 0-2.27 0.037-4.531 0.111-6.783l-0.009 0.328v-93.496h609.948z" />
<glyph unicode="&#xe925;" glyph-name="message-bold" d="M512-64v0c-88.233 0.455-171.065 23.158-243.301 62.777l2.661-1.337c-10.24 5.12-15.36 10.24-25.6 15.36s-10.24 5.12-15.36 10.24c-7.586 3.357-16.434 5.311-25.739 5.311-1.753 0-3.49-0.069-5.208-0.206l0.227 0.014c-0.973 0.109-2.101 0.172-3.243 0.172-6.434 0-12.407-1.978-17.342-5.36l0.105 0.068c-34.284-14.651-74.070-25.459-115.632-30.509l-2.128-0.211c-10.24 0-15.36 0-20.48 10.24-3.484 5.669-5.548 12.534-5.548 19.882 0 2.018 0.156 3.999 0.456 5.933l-0.027-0.215c10.228 45.839 22.553 85.19 37.724 123.094l-1.884-5.334c2.194 6.003 3.463 12.934 3.463 20.161 0 11.461-3.192 22.177-8.734 31.308l0.151-0.268-10.24 20.48c-35.109 68.6-55.868 149.584-56.319 235.373l-0.001 0.147v-5.12c0 282.77 229.23 512 512 512s512-229.23 512-512c0-282.77-229.23-512-512-512v0zM747.52 514.56c-36.76 0-66.56-29.8-66.56-66.56s29.8-66.56 66.56-66.56c36.76 0 66.56 29.8 66.56 66.56v0 0c-0.567 36.53-30.030 65.993-66.506 66.559l-0.054 0.001zM512 514.56c-36.76 0-66.56-29.8-66.56-66.56s29.8-66.56 66.56-66.56c36.76 0 66.56 29.8 66.56 66.56v0 0c-0.567 36.53-30.030 65.993-66.506 66.559l-0.054 0.001zM276.48 514.56c-36.76 0-66.56-29.8-66.56-66.56s29.8-66.56 66.56-66.56c36.76 0 66.56 29.8 66.56 66.56v0c-0.567 36.53-30.030 65.993-66.506 66.559l-0.054 0.001z" />
<glyph unicode="&#xe926;" glyph-name="wallet" d="M737.792-13.312h-460.8c-5.889-0.453-12.754-0.71-19.679-0.71-71.532 0-136.636 27.522-185.301 72.555l0.18-0.165c-44.721 47.877-72.18 112.375-72.18 183.287 0 5.767 0.182 11.492 0.539 17.169l-0.039-0.776v378.88c-0.556 6.326-0.873 13.687-0.873 21.122 0 69.477 27.677 132.49 72.607 178.614l-0.054-0.056c49.523 44.785 115.5 72.191 187.879 72.191 5.953 0 11.863-0.185 17.724-0.551l-0.802 0.040h460.8c8.47 1.018 18.279 1.599 28.223 1.599 137.992 0 249.856-111.864 249.856-249.856 0-9.944-0.581-19.753-1.711-29.394l0.112 1.171h-215.040c-49.358-1.894-93.924-20.975-128.213-51.385l0.213 0.185c-31.592-29.105-51.314-70.679-51.314-116.859 0-2.117 0.041-4.225 0.124-6.323l-0.009 0.302c1.721-99.341 82.656-179.212 182.246-179.212 0.729 0 1.457 0.004 2.184 0.013l-0.111-0.001h215.040v-15.36c0.556-6.326 0.873-13.687 0.873-21.122 0-69.477-27.677-132.49-72.607-178.614l0.054 0.056c-49.569-47.893-117.165-77.405-191.654-77.405-6.427 0-12.803 0.22-19.12 0.652l0.854-0.047zM236.032 708.608c-0.506 0.023-1.099 0.036-1.696 0.036-20.524 0-37.385-15.684-39.252-35.72l-0.012-0.156c-0.002-0.153-0.003-0.334-0.003-0.515 0-22.339 18.109-40.448 40.448-40.448 0.181 0 0.362 0.001 0.543 0.004h286.693c19.794 0 35.84 16.046 35.84 35.84s-16.046 35.84-35.84 35.84h-286.72zM983.552 350.208h-174.080c-0.562-0.010-1.225-0.016-1.89-0.016-50.594 0-93.141 34.452-105.46 81.176l-0.17 0.76c-1.356 6.389-2.132 13.73-2.132 21.253 0 24.911 8.512 47.834 22.787 66.019l-0.175-0.232c18.896 22.042 46.77 35.92 77.885 35.92 1.419 0 2.831-0.029 4.236-0.086l-0.201 0.007h179.2c0.31 0.010 0.674 0.016 1.040 0.016 19.228 0 34.816-15.588 34.816-34.816 0-0.366-0.006-0.73-0.017-1.093l0.001 0.053v-128c0.023-0.506 0.036-1.099 0.036-1.696 0-20.524-15.684-37.385-35.72-39.252l-0.156-0.012zM809.472 498.688c-0.31 0.010-0.674 0.016-1.040 0.016-19.228 0-34.816-15.588-34.816-34.816 0-0.366 0.006-0.73 0.017-1.093l-0.001 0.053c-0.002-0.153-0.003-0.334-0.003-0.515 0-22.339 18.109-40.448 40.448-40.448 0.181 0 0.362 0.001 0.543 0.004h15.333c0.31-0.010 0.674-0.016 1.040-0.016 19.228 0 34.816 15.588 34.816 34.816 0 0.366-0.006 0.73-0.017 1.093l0.001-0.053c0.002 0.153 0.003 0.334 0.003 0.515 0 22.339-18.109 40.448-40.448 40.448-0.181 0-0.362-0.001-0.543-0.004h-15.333z" />
<glyph unicode="&#xe928;" glyph-name="telegram" d="M17.687 463.36l235.52-87.971 93.091-293.236c3.673-11.428 14.209-19.553 26.642-19.553 3.123 0 6.126 0.512 8.929 1.458l-0.197-0.058c3.412 0.955 6.372 2.559 8.877 4.682l-0.034-0.028 131.258 107.055c6.462 4.665 14.541 7.461 23.273 7.461s16.811-2.796 23.391-7.542l-0.118 0.081 236.916-172.218c4.507-3.368 10.189-5.393 16.344-5.393 13.287 0 24.37 9.436 26.913 21.973l0.030 0.176 175.011 836.422c0.369 1.702 0.58 3.657 0.58 5.661 0 13.488-9.561 24.742-22.276 27.355l-0.18 0.031c-2.302 0.661-4.947 1.041-7.68 1.041s-5.378-0.38-7.883-1.090l0.203 0.049-967.215-372.364c-10.285-4.273-17.386-14.238-17.386-25.862 0-3.763 0.744-7.353 2.094-10.63l-0.068 0.186c1.928-7.774 7.029-14.093 13.814-17.616l0.15-0.071zM330.007 421.935l460.8 282.065c1.356 1.4 3.253 2.269 5.353 2.269s3.997-0.869 5.351-2.267l0.002-0.002c1.263-1.332 2.039-3.135 2.039-5.12s-0.777-3.788-2.042-5.123l0.003 0.003-380.276-353.745c-12.712-11.992-21.46-28.061-24.15-46.109l-0.053-0.436-13.033-95.884c-1.494-5.109-6.137-8.778-11.636-8.778s-10.143 3.669-11.615 8.692l-0.021 0.086-49.804 175.011c-1.080 3.738-1.702 8.032-1.702 12.471 0 16.691 8.786 31.33 21.985 39.545l0.197 0.114z" />
<glyph unicode="&#xe929;" glyph-name="facebook" d="M1024.535 789.244c-3.415 92.9-77.856 167.341-170.438 170.747l-0.318 0.009h-683.024c-92.9-3.415-167.341-77.856-170.747-170.438l-0.009-0.318v-682.488c3.415-92.9 77.856-167.341 170.438-170.747l0.318-0.009h341.512v386.476h-125.257v170.756h125.257v66.911c-0.117 2.613-0.183 5.678-0.183 8.759 0 109.733 84.233 199.793 191.568 209.048l0.782 0.054h138.104v-170.756h-138.104c-14.988 0-32.652-18.2-32.652-46.035v-67.981h170.756v-170.756h-172.362v-386.476h181.997c92.9 3.415 167.341 77.856 170.747 170.438l0.009 0.318z" />
<glyph unicode="&#xe92a;" glyph-name="instagram" d="M703.9 960h-383.799c-177.378 0-321.171-143.793-321.171-321.171v0-383.799c0-177.378 143.793-321.171 321.171-321.171v0h383.799c177.378 0 321.171 143.793 321.171 321.171v0 383.799c0 177.378-143.793 321.171-321.171 321.171v0zM928.184 256.1c0-123.869-100.416-224.284-224.284-224.284v0h-383.799c-123.869 0-224.284 100.416-224.284 224.284v0 382.729c0.304 123.747 100.538 223.981 224.255 224.284h383.828c123.747-0.304 223.981-100.538 224.284-224.255v-0.029zM514.944 704.134c-0.159 0-0.347 0.001-0.535 0.001-141.607 0-256.401-114.795-256.401-256.401s114.795-256.401 256.401-256.401c141.606 0 256.401 114.795 256.401 256.401v0c0 0 0 0 0 0.001 0 141.418-114.49 256.096-255.837 256.401h-0.029zM514.944 287.682c-88.689 0-160.585 71.897-160.585 160.585s71.897 160.585 160.585 160.585c88.689 0 160.585-71.897 160.585-160.585v0c0-88.689-71.897-160.585-160.585-160.585v0zM821.662 723.404c0-18.92-15.338-34.258-34.258-34.258s-34.258 15.338-34.258 34.258c0 18.92 15.338 34.258 34.258 34.258s34.258-15.338 34.258-34.258z" />
<glyph unicode="&#xe92b;" glyph-name="user-student" d="M764.8 721.024c0-131.983-106.993-238.976-238.976-238.976s-238.976 106.993-238.976 238.976c0 131.983 106.993 238.976 238.976 238.976s238.976-106.993 238.976-238.976zM647.936 410.432h-244.032c-169.984 0-307.776-178.816-307.776-348.8v-81.024c0.109-39.473 32.079-71.443 71.541-71.552h716.235c39.473 0.109 71.443 32.079 71.552 71.541v81.035c0.32 169.984-137.472 348.8-307.52 348.8z" />
</font>
</defs>
</svg>
